<?xml version="1.0" encoding="UTF-8"?>
<svg width="32px" height="32px" viewBox="0 0 32 32" version="1.1" xmlns="http://www.w3.org/2000/svg" xmlns:xlink="http://www.w3.org/1999/xlink">
    <!-- Generator: Sketch 40.1 (33804) - http://www.bohemiancoding.com/sketch -->
    <title>Search_32</title>
    <desc>Created with Sketch.</desc>
    <defs>
        <polygon id="path-1" points="0 4663 3252.123 4663 3252.123 0 0 0"></polygon>
    </defs>
    <g stroke="none" stroke-width="1" fill="none" fill-rule="evenodd">
        <g transform="translate(-2872.000000, -989.000000)">
            <g>
                <g transform="translate(0.000000, 1.000000)">
                    <mask id="mask-2" fill="white">
                        <use xlink:href="#path-1"></use>
                    </mask>
                    <g></g>
                    <path d="M2901.7009,1017.5898 C2901.4209,1017.8798 2901.0309,1018.0398 2900.6209,1018.0398 C2900.2109,1018.0398 2899.8209,1017.8798 2899.5309,1017.5898 L2898.0309,1016.0898 L2894.5309,1012.5898 C2893.9409,1011.9898 2893.9409,1011.0098 2894.5309,1010.4098 C2894.8209,1010.1198 2895.2109,1009.9598 2895.6209,1009.9598 C2896.0309,1009.9598 2896.4209,1010.1198 2896.7109,1010.4098 L2900.2079,1013.9138 L2901.7009,1015.4098 C2902.3009,1016.0098 2902.3009,1016.9898 2901.7009,1017.5898 L2901.7009,1017.5898 Z M2884.1209,1009.9998 C2878.6109,1009.9998 2874.1209,1005.5098 2874.1209,999.9998 C2874.1209,994.4898 2878.6109,989.9998 2884.1209,989.9998 C2889.6309,989.9998 2894.1209,994.4898 2894.1209,999.9998 C2894.1209,1001.8488 2893.6059,1003.5768 2892.7259,1005.0648 C2891.8639,1006.5238 2890.6449,1007.7428 2889.1859,1008.6048 C2887.6979,1009.4858 2885.9699,1009.9998 2884.1209,1009.9998 L2884.1209,1009.9998 Z M2898.1209,1008.9998 C2897.4309,1008.3098 2896.5209,1007.9598 2895.6209,1007.9598 L2894.1849,1006.5238 C2895.4049,1004.6458 2896.1209,1002.4078 2896.1209,999.9998 C2896.1209,993.3698 2890.7509,987.9998 2884.1209,987.9998 C2877.4909,987.9998 2872.1209,993.3698 2872.1209,999.9998 C2872.1209,1006.6298 2877.4909,1011.9998 2884.1209,1011.9998 C2886.5289,1011.9998 2888.7659,1011.2848 2890.6449,1010.0638 L2892.0859,1011.5058 C2892.0879,1012.4088 2892.4319,1013.3118 2893.1209,1013.9998 L2898.1209,1018.9998 C2898.8109,1019.6898 2899.7209,1020.0398 2900.6209,1020.0398 C2901.5209,1020.0398 2902.4309,1019.6898 2903.1209,1018.9998 C2904.5009,1017.6198 2904.5009,1015.3798 2903.1209,1013.9998 L2898.1209,1008.9998 Z" id="Fill-7717" fill="#000000" mask="url(#mask-2)"></path>
                </g>
            </g>
            <g transform="translate(210.000000, 1.000000)"></g>
        </g>
    </g>
</svg>